<?xml version="1.0" encoding="UTF-8"?>
<svg xmlns="http://www.w3.org/2000/svg" viewBox="0 0 512 512" width="512" height="512" aria-labelledby="title">
    <title id="title">ImageFetcher icon</title>

    <!-- Taustaneliö -->
    <rect x="16" y="16" width="480" height="480" rx="72" ry="72" fill="#0f62fe"/>

    <!-- Monitori ja sisältö -->
    <g transform="translate(64,84)">
        <rect x="0" y="0" width="384" height="256" rx="20" ry="20" fill="#ffffff" stroke="#000000" stroke-opacity="0.06" stroke-width="2"/>
        <rect x="18" y="18" width="348" height="220" rx="12" ry="12" fill="#e8f6ff"/>

        <!-- Kuva: vuoret ja aurinko -->
        <g transform="translate(36,34)">
            <rect x="0" y="0" width="276" height="172" rx="8" ry="8" fill="#e8f6ff"/>
            <polygon points="0,152 68,56 132,112 196,40 276,152" fill="#8a3ffc"/>
            <circle cx="220" cy="36" r="18" fill="#ffd166"/>

            <!-- Pilvi -->
            <g transform="translate(-8,-12)">
                <ellipse cx="42" cy="28" rx="22" ry="14" fill="#cfe9ff"/>
                <ellipse cx="60" cy="22" rx="16" ry="12" fill="#cfe9ff"/>
                <rect x="22" y="28" width="56" height="10" rx="5" ry="5" fill="#cfe9ff"/>
            </g>
        </g>

        <!-- Monitorin jalusta -->
        <rect x="140" y="266" width="104" height="18" rx="6" ry="6" fill="#e6eefc"/>
        <rect x="172" y="284" width="44" height="12" rx="6" ry="6" fill="#d6e7ff"/>
    </g>

    <!-- Päivitysnuoli -->
    <g transform="translate(360,60) scale(0.8)" aria-hidden="true">
        <path d="M72 4a68 68 0 1 0 20 132l-10-14a48 48 0 1 1-10-10l-6 6 28 20 28-20-6-6-10 10A68 68 0 0 0 72 4z" fill="#0b5ed7"/>
        <path d="M86 24 L86 44 L100 44" stroke="#ffffff" stroke-opacity="0.06" stroke-width="4" fill="none"/>
    </g>

    <!-- Kiilto -->
    <path d="M24 120 C 120 40, 392 20, 488 120" fill="none" stroke="#ffffff" stroke-opacity="0.06" stroke-width="18" stroke-linecap="round"/>
</svg>
